<svg width="75" height="87" viewBox="0 0 75 87" fill="none" xmlns="http://www.w3.org/2000/svg">
<path d="M47.4056 54.6292L45.8738 56.9269C45.5269 57.4473 45.3417 58.0589 45.3417 58.6844C45.3417 60.4343 43.9231 61.8529 42.1733 61.8529H32.3129C30.2663 61.8529 28.4824 60.46 27.986 58.4746C27.862 57.9786 27.6537 57.5077 27.3701 57.0823L25.7347 54.6292L24.0423 52.0905C23.7958 51.7208 23.5996 51.3198 23.4591 50.8982L22.6389 48.4376L21.607 45.3417L20.8316 43.0157C20.6617 42.5058 20.575 41.9719 20.575 41.4345V35.1707C20.575 34.3945 20.7557 33.6289 21.1029 32.9346L22.6389 29.8626L24.4282 27.1787C24.6108 26.9047 24.8201 26.6495 25.0529 26.4166L26.964 24.5055C27.5129 23.9566 28.182 23.5431 28.9184 23.2976L30.8945 22.6389L34.4251 21.7563C34.8217 21.6571 35.229 21.607 35.6378 21.607H38.1181H40.4025C40.9399 21.607 41.4738 21.6936 41.9837 21.8636L43.9727 22.5266C44.1971 22.6014 44.416 22.692 44.6276 22.7979L46.3736 23.6709L47.7118 24.34C48.1925 24.5803 48.6313 24.8966 49.0113 25.2766L49.4695 25.7348L49.9277 26.193C50.3077 26.573 50.624 27.0118 50.8643 27.4924L51.5334 28.8306L52.5653 30.8945L53.0694 31.9027C53.4165 32.5969 53.5973 33.3625 53.5973 34.1387V41.4345C53.5973 41.9719 53.5106 42.5058 53.3407 43.0157L52.5653 45.3417L51.7451 47.8023C51.6046 48.2239 51.4085 48.6249 51.162 48.9947L49.4695 51.5334L47.4056 54.6292Z" stroke="white" stroke-width="3" stroke-linecap="round"/>
<path d="M43.2778 80.4279C43.2778 81.241 43.1177 82.0461 42.8065 82.7973C42.4953 83.5485 42.0393 84.2311 41.4643 84.8061C40.8894 85.381 40.2068 85.8371 39.4556 86.1482C38.7044 86.4594 37.8992 86.6195 37.0861 86.6195C36.273 86.6195 35.4679 86.4594 34.7167 86.1482C33.9655 85.8371 33.2829 85.381 32.708 84.8061C32.133 84.2311 31.6769 83.5485 31.3658 82.7973C31.0546 82.0461 30.8945 81.241 30.8945 80.4279L37.0861 80.4279H43.2778Z" fill="white"/>
<path d="M28.5746 76.316L45.0857 74.2521" stroke="white" stroke-width="3" stroke-linecap="round"/>
<path d="M28.8306 70.1084L45.3417 68.0445" stroke="white" stroke-width="3" stroke-linecap="round"/>
<path d="M12.3195 61.7498L19.9218 53.5973" stroke="white" stroke-width="3" stroke-linecap="round"/>
<path d="M2 37.0862H13.1472" stroke="white" stroke-width="3" stroke-linecap="round"/>
<path d="M12.3195 12.3195L19.8098 20.5751" stroke="white" stroke-width="3" stroke-linecap="round"/>
<path d="M37.0861 13.1472V2" stroke="white" stroke-width="3" stroke-linecap="round"/>
<path d="M61.0876 12.3195L53.5972 20.5751" stroke="white" stroke-width="3" stroke-linecap="round"/>
<path d="M61.8528 37.0862H73" stroke="white" stroke-width="3" stroke-linecap="round"/>
<path d="M53.3058 53.6488L60.9081 61.8013" stroke="white" stroke-width="3" stroke-linecap="round"/>
<path d="M37.0861 26.7667H34.8017C34.2643 26.7667 33.7304 26.8534 33.2206 27.0233L32.0142 27.4254C31.2778 27.6709 30.6087 28.0844 30.0598 28.6333L28.3724 30.3208C27.9924 30.7008 27.6761 31.1396 27.4358 31.6202L26.2626 33.9666C25.9155 34.6608 25.7347 35.4264 25.7347 36.2026V38.1181" stroke="white" stroke-width="3" stroke-linecap="round"/>
</svg>
